# xmcd CD database file
# Copyright (C) 1993-1998 Ti Kan
#
# Track frame offsets:
# 150
# 22592
# 41577
#
# Disc length: 907 seconds
# Revision: 0
# Processed by: cddbd v1.4b41PL1 Copyright (c) Steve Scherf et al.
# Submitted via: CDSpectrumPro v3.3.331
#
DISCID=14038903
DTITLE=THE FAMLEE - LOVE ME [CD Single)
DYEAR=1900
DGENRE=
TTITLE0=LP Version
TTITLE1=Remix
TTITLE2=Club Mix
EXTD=
EXTT0=
EXTT1=
EXTT2=
PLAYORDER=
